<svg xmlns="http://www.w3.org/2000/svg" width="506.4" height="545.2" viewBox="0 0 506.4 545.2"><g transform="translate(20 20)"><rect width="64.8" height="36.8" fill="#fff" stroke="#000" rx="18.4" ry="18.4"/><text x="18.4" y="24" dy="0" font-family="sans-serif" font-size="14">開始</text></g><path stroke="#000" d="M20 38.4v45.2"/><text x="10" y="14" dy="0" font-family="sans-serif" font-size="14" transform="translate(20 66.8)">(コメント文)</text><path stroke="#000" d="M20 66.8v63.6"/><path fill="#fff" stroke="#000" d="M20 93.6h104v36.8H20Z"/><path stroke="#000" d="M25 93.6v36.8m94-36.8v36.8"/><text x="10" y="24" dy="0" font-family="sans-serif" font-size="14" transform="translate(20 93.6)">関数呼び出し</text><path fill="#fff" stroke="#000" d="M144 93.6h48v36.8h-48Z"/><text x="10" y="24" dy="0" font-family="sans-serif" font-size="14" transform="translate(144 93.6)">中身</text><path stroke="#000" d="M124 93.6h20m-124 0v137.2"/><path fill="#fff" stroke="#000" d="M122 140.4h76v36.8h-76Z"/><text x="10" y="24" dy="0" font-family="sans-serif" font-size="14" transform="translate(122 140.4)">真の場合</text><path stroke="#000" d="M102 140.4h20"/><path fill="#fff" stroke="#000" d="M122 194h232.8v36.8H122Z"/><text x="10" y="24" dy="0" font-family="sans-serif" font-size="14" transform="translate(122 194)">偽の場合(:else以下は省略可能)</text><path stroke="#000" d="M102 194h20"/><path fill="#fff" stroke="#000" d="M20 140.4h82l-20 26.8 20 26.8H20Z"/><text x="5" y="32.4" dy="0" font-family="sans-serif" font-size="14" transform="translate(20 140.4)">条件式</text><path stroke="#000" d="M20 140.4v244.4"/><path fill="#fff" stroke="#000" d="M158.4 240.8h112.4v36.8H158.4Z"/><text x="10" y="24" dy="0" font-family="sans-serif" font-size="14" transform="translate(158.4 240.8)">ケース1の中身</text><path stroke="#000" d="M138.4 240.8h20"/><path fill="#fff" stroke="#000" d="M158.4 294.4h112.4v36.8H158.4Z"/><text x="10" y="24" dy="0" font-family="sans-serif" font-size="14" transform="translate(158.4 294.4)">ケース2の中身</text><path stroke="#000" d="M138.4 294.4h20"/><path fill="#fff" stroke="#000" d="M158.4 348h328v36.8h-328Z"/><text x="10" y="24" dy="0" font-family="sans-serif" font-size="14" transform="translate(158.4 348)">ケース文は必要に応じていくつでも追加できます</text><path stroke="#000" d="M138.4 348h20"/><path fill="#fff" stroke="#000" d="M20 240.8h118.4l-20 26.8 20 26.8-20 26.8 20 26.8H20Z"/><text x="43" y="19" dy="0" font-family="sans-serif" font-size="14" transform="translate(20 240.8)">ケース1</text><text x="43" y="59.2" dy="0" font-family="sans-serif" font-size="14" transform="translate(20 240.8)">ケース2</text><text x="68.2" y="99.4" dy="0" font-family="sans-serif" font-size="14" transform="translate(20 240.8)">...</text><text x="5" y="59.2" dy="0" font-family="sans-serif" font-size="14" transform="translate(20 240.8)">条件</text><path stroke="#000" d="M20 240.8v190.8"/><path fill="#fff" stroke="#000" d="M20 394.8h174v36.8H20Z"/><path stroke="#000" d="M25 394.8v36.8"/><text x="10" y="24" dy="0" font-family="sans-serif" font-size="14" transform="translate(20 394.8)">繰り返し条件（先判定）</text><path fill="#fff" stroke="#000" d="M214 394.8h48v36.8h-48Z"/><text x="10" y="24" dy="0" font-family="sans-serif" font-size="14" transform="translate(214 394.8)">中身</text><path stroke="#000" d="M194 394.8h20m-194 0v83.6"/><path fill="#fff" stroke="#000" d="M20 441.6h174v36.8H20Z"/><path stroke="#000" d="M189 441.6v36.8"/><text x="10" y="24" dy="0" font-family="sans-serif" font-size="14" transform="translate(20 441.6)">繰り返し条件（後判定）</text><path fill="#fff" stroke="#000" d="M214 441.6h48v36.8h-48Z"/><text x="10" y="24" dy="0" font-family="sans-serif" font-size="14" transform="translate(214 441.6)">中身</text><path stroke="#000" d="M194 441.6h20m-194 0v65.2"/><g transform="translate(20 488.4)"><rect width="64.8" height="36.8" fill="#fff" stroke="#000" rx="18.4" ry="18.4"/><text x="18.4" y="24" dy="0" font-family="sans-serif" font-size="14">終了</text></g></svg>