<svg xmlns="http://www.w3.org/2000/svg" width="520" height="217.2" viewBox="0 0 520 217.2"><path fill="#fff" stroke="#000" d="M20 20h76v36.8H20Z"/><text x="10" y="24" dy="0" font-family="sans-serif" font-size="14" transform="translate(20 20)">ブロック</text><path fill="#fff" stroke="#000" d="M116 20h384v36.8H116Z"/><text x="10" y="24" dy="0" font-family="sans-serif" font-size="14" transform="translate(116 20)">タブインデントを上げる事で子のブロックを定義できます</text><path stroke="#000" d="M116 20v130.4"/><path fill="#fff" stroke="#000" d="M116 66.8h98.4v36.8H116Z"/><text x="10" y="24" dy="0" font-family="sans-serif" font-size="14" transform="translate(116 66.8)">小ブロック1</text><path fill="#fff" stroke="#000" d="M234.4 66.8h98.4v36.8h-98.4Z"/><text x="10" y="24" dy="0" font-family="sans-serif" font-size="14" transform="translate(234.4 66.8)">孫ブロック1</text><path stroke="#000" d="M234.4 66.8v83.6"/><path fill="#fff" stroke="#000" d="M234.4 113.6h98.4v36.8h-98.4Z"/><text x="10" y="24" dy="0" font-family="sans-serif" font-size="14" transform="translate(234.4 113.6)">孫ブロック2</text><path stroke="#000" d="M214.4 66.8h20m-118.4 0v130.4"/><path fill="#fff" stroke="#000" d="M116 160.4h98.4v36.8H116Z"/><text x="10" y="24" dy="0" font-family="sans-serif" font-size="14" transform="translate(116 160.4)">子ブロック2</text><path stroke="#000" d="M96 20h20"/></svg>