<svg xmlns="http://www.w3.org/2000/svg" width="593.6" height="170.4" viewBox="0 0 593.6 170.4"><path fill="#fff" d="M0 0h593.6v170.4H0Z"/><path fill="#fff" stroke="#000" d="M20 20h165.6v36.8H20Z"/><text x="10" y="24" dy="0" font-family="sans-serif" font-size="14" transform="translate(20 20)">process: 親ブロック</text><path fill="#fff" stroke="#000" d="M205.6 20h174v36.8h-174Z"/><text x="10" y="24" dy="0" font-family="sans-serif" font-size="14" transform="translate(205.6 20)">process: 子ブロック1</text><path fill="#fff" stroke="#000" d="M399.6 20h174v36.8h-174Z"/><text x="10" y="24" dy="0" font-family="sans-serif" font-size="14" transform="translate(399.6 20)">process: 孫ブロック1</text><path stroke="#000" d="M399.6 20v83.6"/><path fill="#fff" stroke="#000" d="M399.6 66.8h174v36.8h-174Z"/><text x="10" y="24" dy="0" font-family="sans-serif" font-size="14" transform="translate(399.6 66.8)">process: 孫ブロック2</text><path stroke="#000" d="M379.6 20h20m-194 0v130.4"/><path fill="#fff" stroke="#000" d="M205.6 113.6h174v36.8h-174Z"/><text x="10" y="24" dy="0" font-family="sans-serif" font-size="14" transform="translate(205.6 113.6)">process: 子ブロック2</text><path stroke="#000" d="M185.6 20h20"/></svg>