<svg xmlns="http://www.w3.org/2000/svg" width="366.4" height="491.6" viewBox="0 0 366.4 491.6"><path fill="#fff" d="M0 0h366.4v491.6H0z"/><g transform="translate(20 20)"><rect width="64.8" height="36.8" fill="#fff" stroke="#000" rx="18.4" ry="18.4"/><text x="18.4" y="24" dy="0" font-family="sans-serif" font-size="14">開始</text></g><path stroke="#000" d="M20 38.4v45.2"/><text x="10" y="14" dy="0" font-family="sans-serif" font-size="14" transform="translate(20 66.8)">(コメント文)</text><path stroke="#000" d="M20 66.8v63.6"/><path fill="#fff" stroke="#000" d="M20 93.6h104v36.8H20z"/><path stroke="#000" d="M25 93.6v36.8m94-36.8v36.8"/><text x="10" y="24" dy="0" font-family="sans-serif" font-size="14" transform="translate(20 93.6)">関数呼び出し</text><path fill="#fff" stroke="#000" d="M144 93.6h123.6v36.8H144z"/><text x="10" y="24" dy="0" font-family="sans-serif" font-size="14" transform="translate(144 93.6)">process: 中身</text><path stroke="#000" d="M124 93.6h20m-124 0v137.2"/><path fill="#fff" stroke="#000" d="M122 140.4h151.6v36.8H122z"/><text x="10" y="24" dy="0" font-family="sans-serif" font-size="14" transform="translate(122 140.4)">process: 真の場合</text><path stroke="#000" d="M102 140.4h20"/><path fill="#fff" stroke="#000" d="M122 194h151.6v36.8H122z"/><text x="10" y="24" dy="0" font-family="sans-serif" font-size="14" transform="translate(122 194)">process: 偽の場合</text><path stroke="#000" d="M102 194h20"/><path fill="#fff" stroke="#000" d="M20 140.4h82l-20 26.8 20 26.8H20z"/><text x="5" y="32.4" dy="0" font-family="sans-serif" font-size="14" transform="translate(20 140.4)">条件式</text><path stroke="#000" d="M20 140.4v190.8"/><path fill="#fff" stroke="#000" d="M158.4 240.8h188v36.8h-188z"/><text x="10" y="24" dy="0" font-family="sans-serif" font-size="14" transform="translate(158.4 240.8)">process: ケース1の中身</text><path stroke="#000" d="M138.4 240.8h20"/><path fill="#fff" stroke="#000" d="M158.4 294.4h188v36.8h-188z"/><text x="10" y="24" dy="0" font-family="sans-serif" font-size="14" transform="translate(158.4 294.4)">process: ケース2の中身</text><path stroke="#000" d="M138.4 294.4h20"/><path fill="#fff" stroke="#000" d="M20 240.8h118.4l-20 26.8 20 26.8H20z"/><text x="43" y="19" dy="0" font-family="sans-serif" font-size="14" transform="translate(20 240.8)">ケース1</text><text x="43" y="45.8" dy="0" font-family="sans-serif" font-size="14" transform="translate(20 240.8)">ケース2</text><text x="5" y="32.4" dy="0" font-family="sans-serif" font-size="14" transform="translate(20 240.8)">条件</text><path stroke="#000" d="M20 240.8V378"/><path fill="#fff" stroke="#000" d="M20 341.2h174V378H20z"/><path stroke="#000" d="M25 341.2V378"/><text x="10" y="24" dy="0" font-family="sans-serif" font-size="14" transform="translate(20 341.2)">繰り返し条件（先判定）</text><path fill="#fff" stroke="#000" d="M214 341.2h123.6V378H214z"/><text x="10" y="24" dy="0" font-family="sans-serif" font-size="14" transform="translate(214 341.2)">process: 中身</text><path stroke="#000" d="M194 341.2h20m-194 0v83.6"/><path fill="#fff" stroke="#000" d="M20 388h174v36.8H20z"/><path stroke="#000" d="M189 388v36.8"/><text x="10" y="24" dy="0" font-family="sans-serif" font-size="14" transform="translate(20 388)">繰り返し条件（後判定）</text><path fill="#fff" stroke="#000" d="M214 388h123.6v36.8H214z"/><text x="10" y="24" dy="0" font-family="sans-serif" font-size="14" transform="translate(214 388)">process: 中身</text><path stroke="#000" d="M194 388h20m-194 0v65.2"/><g transform="translate(20 434.8)"><rect width="64.8" height="36.8" fill="#fff" stroke="#000" rx="18.4" ry="18.4"/><text x="18.4" y="24" dy="0" font-family="sans-serif" font-size="14">終了</text></g></svg>